<?xml version="1.0" standalone="no"?>
<!DOCTYPE svg PUBLIC "-//W3C//DTD SVG 20010904//EN"
 "http://www.w3.org/TR/2001/REC-SVG-20010904/DTD/svg10.dtd">
<svg version="1.0" xmlns="http://www.w3.org/2000/svg"
 width="1122.000000pt" height="1122.000000pt" viewBox="0 0 1122.000000 1122.000000"
 preserveAspectRatio="xMidYMid meet">
<metadata>
Created by potrace 1.11, written by Peter Selinger 2001-2013
</metadata>
<g transform="translate(0.000000,1122.000000) scale(0.100000,-0.100000)"
fill="#000000" stroke="none">
<path d="M4707 11199 c-96 -22 -190 -101 -235 -197 -23 -49 -27 -70 -27 -147
1 -77 5 -98 28 -146 36 -74 94 -131 172 -170 l65 -32 215 -1 215 -1 0 -482 0
-483 -27 -1 c-16 0 -37 -2 -48 -4 -11 -2 -42 -7 -70 -10 -42 -6 -105 -18 -265
-51 -14 -2 -33 -7 -42 -10 -9 -3 -26 -7 -39 -9 -12 -2 -47 -12 -78 -21 -31 -9
-64 -18 -73 -19 -31 -6 -252 -83 -348 -120 -316 -124 -617 -292 -906 -506
l-91 -67 -338 339 c-187 186 -336 342 -331 346 170 171 285 297 303 334 13 25
27 73 31 106 28 204 -125 391 -324 396 -174 5 -140 32 -847 -675 -564 -564
-620 -623 -648 -682 -62 -132 -33 -294 71 -395 33 -32 64 -51 150 -91 9 -4 54
-7 100 -6 131 2 171 25 344 196 78 77 145 140 148 140 3 0 157 -151 342 -336
l336 -336 -20 -27 c-253 -333 -445 -678 -585 -1053 -34 -92 -110 -334 -119
-381 -3 -12 -14 -60 -25 -107 -11 -47 -22 -96 -25 -110 -2 -14 -9 -52 -15 -85
-25 -146 -26 -152 -29 -196 l-2 -27 -480 0 -480 0 0 41 c-2 388 -4 406 -54
491 -31 53 -95 109 -156 139 -63 29 -215 31 -280 3 -103 -45 -179 -135 -202
-241 -11 -47 -13 -242 -13 -920 2 -957 -2 -909 70 -1007 129 -175 399 -188
543 -24 76 87 89 137 90 367 1 107 2 199 2 205 0 13 948 16 956 3 2 -4 7 -25
9 -46 10 -92 44 -283 65 -363 5 -19 14 -57 21 -85 20 -84 101 -350 119 -390 5
-11 23 -58 40 -103 17 -46 35 -91 39 -100 5 -10 23 -48 41 -87 113 -246 260
-496 421 -713 l69 -92 -338 -339 -338 -338 -147 144 c-181 178 -217 198 -352
197 -78 0 -98 -3 -145 -27 -172 -85 -245 -269 -179 -449 23 -61 41 -80 649
-689 549 -550 632 -630 683 -653 91 -42 214 -42 302 0 78 37 160 132 180 209
15 55 15 60 16 109 1 122 -32 178 -205 354 l-140 143 338 338 339 338 76 -57
c266 -199 581 -377 891 -504 87 -35 336 -122 374 -131 12 -2 73 -18 136 -34
63 -16 128 -32 144 -35 16 -3 55 -11 85 -17 74 -15 77 -16 141 -25 30 -4 58
-9 63 -10 4 -1 23 -2 42 -3 l35 -1 0 -483 0 -482 -177 0 c-98 0 -200 -3 -227
-7 -233 -35 -362 -289 -257 -502 37 -75 92 -128 170 -165 l56 -26 874 -3 c764
-2 881 -1 935 13 153 39 258 172 259 330 2 159 -85 285 -230 337 -50 18 -85
21 -258 23 -110 2 -202 3 -205 4 -7 1 -7 948 0 953 3 3 57 12 120 21 127 18
136 20 265 48 378 83 751 226 1100 422 115 64 303 188 418 274 l79 59 339
-340 340 -340 -125 -125 c-69 -69 -137 -139 -151 -156 -95 -113 -94 -300 1
-424 96 -125 228 -164 399 -118 56 16 150 103 709 662 679 679 664 662 674
796 16 224 -167 400 -391 374 -101 -11 -148 -41 -302 -195 -77 -77 -144 -140
-150 -140 -5 0 -160 150 -344 334 -313 314 -333 336 -320 354 8 11 51 72 96
135 110 152 236 362 323 535 38 78 70 144 70 146 0 3 13 33 29 68 26 57 118
301 127 338 2 8 17 60 34 115 28 94 92 373 104 460 11 69 16 104 21 138 l5 34
479 0 480 0 3 -221 c3 -218 3 -222 31 -278 101 -206 356 -264 541 -123 19 15
49 48 65 74 66 102 62 47 62 1016 0 962 2 919 -58 1010 -37 56 -79 92 -143
123 -48 23 -67 27 -150 27 -83 0 -102 -3 -151 -27 -71 -35 -134 -98 -167 -168
-26 -54 -27 -61 -30 -277 l-3 -221 -480 -1 c-301 0 -479 3 -480 9 -1 6 -2 13
-3 18 -2 4 -6 34 -11 67 -4 33 -9 65 -10 70 -1 6 -5 33 -10 60 -36 234 -145
603 -250 851 -122 286 -247 506 -443 782 l-95 134 334 334 c184 184 339 334
344 334 6 0 73 -63 149 -139 174 -174 213 -196 351 -195 103 0 151 18 223 80
87 74 128 174 119 289 -11 142 9 119 -674 802 -552 552 -622 618 -677 644
-247 115 -515 -66 -501 -338 6 -108 36 -158 202 -324 l145 -147 -336 -336
c-184 -185 -340 -336 -346 -336 -7 0 -30 15 -53 34 -243 195 -656 425 -987
548 -58 21 -114 42 -125 47 -106 46 -527 148 -685 167 -30 3 -73 9 -95 13
l-40 7 -1 477 c0 262 2 478 5 478 3 1 98 3 211 4 249 3 287 13 379 104 75 73
104 144 104 252 0 65 -5 87 -31 140 -33 70 -73 117 -133 155 -85 53 -79 53
-1006 52 -472 0 -875 -5 -896 -9z m-184 -3054 c291 -76 507 -289 588 -580 17
-61 23 -108 23 -195 1 -141 -6 -187 -45 -296 -95 -260 -329 -460 -607 -518
-99 -21 -264 -17 -357 8 -55 15 -133 42 -145 51 -8 7 -35 22 -60 34 -112 57
-258 208 -320 331 -30 59 -66 161 -78 220 -14 69 -6 291 12 359 82 302 320
528 626 595 96 22 263 17 363 -9z m2602 -3725 c155 -35 297 -180 335 -340 91
-381 -302 -697 -654 -525 -165 80 -260 232 -259 415 1 307 275 520 578 450z"/>
</g>
</svg>
